HIERARCHY
ROOT Hips
{
	OFFSET -0.001795 -0.223333 0.028219
	CHANNELS 6 Xposition Yposition Zposition Zrotation Yrotation Xrotation 
	JOINT LeftUpLeg
	{
		OFFSET 0.069520 -0.091406 -0.006815
		CHANNELS 3 Zrotation Yrotation Xrotation
		JOINT LeftLeg
		{
			OFFSET 0.034277 -0.375199 -0.004496
			CHANNELS 3 Zrotation Yrotation Xrotation
			JOINT LeftFoot
			{
				OFFSET -0.013596 -0.397961 -0.043693
				CHANNELS 3 Zrotation Yrotation Xrotation
				JOINT LeftToe
				{
					OFFSET 0.026358 -0.055791 0.119288
					CHANNELS 3 Zrotation Yrotation Xrotation
					End Site
					{
						OFFSET 0.000000 0.000000 0.000000
					}
				}
			}
		}
	}
	JOINT RightUpLeg
	{
		OFFSET -0.067670 -0.090522 -0.004320
		CHANNELS 3 Zrotation Yrotation Xrotation
		JOINT RightLeg
		{
			OFFSET -0.038290 -0.382569 -0.008850
			CHANNELS 3 Zrotation Yrotation Xrotation
			JOINT RightFoot
			{
				OFFSET 0.015774 -0.398415 -0.042312
				CHANNELS 3 Zrotation Yrotation Xrotation
				JOINT RightToe
				{
					OFFSET -0.025372 -0.048144 0.123348
					CHANNELS 3 Zrotation Yrotation Xrotation
					End Site
					{
						OFFSET 0.000000 0.000000 0.000000
					}
				}
			}
		}
	}
	JOINT Spine
	{
		OFFSET -0.002533 0.108963 -0.026696
		CHANNELS 3 Zrotation Yrotation Xrotation
		JOINT Spine1
		{
			OFFSET 0.005487 0.135180 0.001092
			CHANNELS 3 Zrotation Yrotation Xrotation
			JOINT Spine2
			{
				OFFSET 0.001457 0.052922 0.025425
				CHANNELS 3 Zrotation Yrotation Xrotation
				JOINT Neck
				{
					OFFSET -0.002778 0.213870 -0.042857
					CHANNELS 3 Zrotation Yrotation Xrotation
					JOINT Head
					{
						OFFSET 0.005152 0.064970 0.051349
						CHANNELS 3 Zrotation Yrotation Xrotation
						End Site
						{
							OFFSET 0.000000 0.000000 0.000000
						}
					}
				}
				JOINT LeftShoulder
				{
					OFFSET 0.078845 0.121749 -0.034090
					CHANNELS 3 Zrotation Yrotation Xrotation
					JOINT LeftArm
					{
						OFFSET 0.090977 0.030469 -0.008868
						CHANNELS 3 Zrotation Yrotation Xrotation
						JOINT LeftForeArm
						{
							OFFSET 0.259612 -0.012772 -0.027456
							CHANNELS 3 Zrotation Yrotation Xrotation
							JOINT LeftHand
							{
								OFFSET 0.249234 0.008986 -0.001171
								CHANNELS 3 Zrotation Yrotation Xrotation
								End Site
								{
									OFFSET 0.000000 0.000000 0.000000
								}
							}
						}
					}
				}
				JOINT RightShoulder
				{
					OFFSET -0.081759 0.118833 -0.038615
					CHANNELS 3 Zrotation Yrotation Xrotation
					JOINT RightArm
					{
						OFFSET -0.096012 0.032551 -0.009143
						CHANNELS 3 Zrotation Yrotation Xrotation
						JOINT RightForeArm
						{
							OFFSET -0.253742 -0.013329 -0.021401
							CHANNELS 3 Zrotation Yrotation Xrotation
							JOINT RightHand
							{
								OFFSET -0.255298 0.007772 -0.005559
								CHANNELS 3 Zrotation Yrotation Xrotation
								End Site
								{
									OFFSET 0.000000 0.000000 0.000000
								}
							}
						}
					}
				}
			}
		}
	}
}
MOTION
Frames: 8
Frame Time: 0.050000
-0.001943 0.954620 -0.085936 1.481321 4.679900 5.591161 3.866294 -0.248906 -2.075487 -3.676208 0.358808 -5.929793 2.426269 10.047037 16.125282 0.000000 0.000000 0.000000 -6.364334 0.369797 -4.583315 4.689867 -0.533621 -4.158029 -5.067051 -14.464116 18.326968 0.000000 0.000000 0.000000 9.759629 -0.615397 2.459343 -5.508414 2.186304 -16.884443 -2.853710 2.647348 28.042982 12.282312 -6.731586 -17.001906 0.000000 0.000000 0.000000 -0.712697 -18.838965 6.329921 -32.416283 -35.549905 3.099887 118.676919 -66.792661 -91.840615 0.000000 0.000000 0.000000 7.731798 4.361923 2.068503 37.001945 36.384426 5.288238 -76.443009 84.954104 -63.121071 0.000000 0.000000 0.000000 
-0.001904 0.954401 -0.087549 1.499110 4.969874 5.781532 3.914798 -0.259747 -2.192130 -3.769188 0.358095 -6.340531 2.263533 9.858786 16.184129 0.000000 0.000000 0.000000 -6.502658 0.367608 -4.629487 4.908518 -0.554086 -4.549861 -5.198500 -14.647883 18.504362 0.000000 0.000000 0.000000 9.855298 -0.567616 1.976657 -5.585188 2.215826 -16.792955 -2.919714 2.667675 28.180417 12.426553 -6.869331 -16.769709 0.000000 0.000000 0.000000 -0.630233 -19.041919 6.382323 -32.127442 -35.379796 2.986709 118.173050 -66.606609 -91.209092 0.000000 0.000000 0.000000 7.913514 4.126930 1.999190 37.172178 36.379978 5.319999 -75.790512 84.707918 -62.133713 0.000000 0.000000 0.000000 
-0.001872 0.954304 -0.089153 1.510079 5.096509 5.776211 3.851918 -0.255111 -2.120903 -3.683118 0.352356 -6.664691 2.178668 9.766082 16.244858 0.000000 0.000000 0.000000 -6.557217 0.361381 -4.557480 4.977970 -0.560783 -4.815878 -5.243900 -14.711438 18.618970 0.000000 0.000000 0.000000 9.964488 -0.552960 1.811944 -5.683189 2.248105 -16.769718 -2.903812 2.697054 28.288621 12.442663 -6.852209 -16.835406 0.000000 0.000000 0.000000 -0.681563 -19.245117 6.449007 -31.876416 -35.166867 2.880707 117.677429 -66.484769 -90.614208 0.000000 0.000000 0.000000 8.109667 4.074587 2.001178 37.285828 36.184736 5.270429 -77.047058 84.522142 -63.094481 0.000000 0.000000 0.000000 
-0.001831 0.954203 -0.090751 1.496651 5.233134 5.925977 3.841009 -0.260480 -2.183721 -3.638822 0.347790 -7.059650 2.091024 9.679683 16.342710 0.000000 0.000000 0.000000 -6.588943 0.361965 -4.584787 5.050241 -0.567255 -5.210363 -5.294447 -14.783593 18.800370 0.000000 0.000000 0.000000 10.017535 -0.498257 1.320682 -5.754621 2.274077 -16.674581 -2.868318 2.749792 28.519245 12.551125 -6.961815 -16.663693 0.000000 0.000000 0.000000 -0.681384 -19.563378 6.549095 -31.578730 -34.994229 2.770816 116.886395 -66.395411 -89.746662 0.000000 0.000000 0.000000 8.285258 3.993245 1.993402 37.373751 35.976771 5.204696 -77.673059 84.342978 -63.436936 0.000000 0.000000 0.000000 
-0.001811 0.954087 -0.092366 1.492893 5.272065 5.989974 3.823386 -0.262660 -2.215142 -3.614155 0.345576 -7.322288 2.058738 9.654865 16.412429 0.000000 0.000000 0.000000 -6.570082 0.362856 -4.590423 5.007251 -0.564295 -5.503587 -5.303602 -14.798603 18.909477 0.000000 0.000000 0.000000 10.062269 -0.466259 1.036243 -5.812338 2.295545 -16.555431 -2.849807 2.850712 28.601551 12.635203 -7.019002 -16.615601 0.000000 0.000000 0.000000 -0.706160 -19.762788 6.611886 -31.411567 -34.890766 2.708405 116.903647 -66.453466 -89.906549 0.000000 0.000000 0.000000 8.474972 3.994202 2.020704 37.435600 35.824042 5.158955 -78.200675 84.074303 -63.618836 0.000000 0.000000 0.000000 
-0.001779 0.953854 -0.093959 1.527856 5.553168 5.933162 3.806444 -0.252469 -2.025142 -3.637423 0.340748 -7.784206 1.883602 9.448792 16.466980 0.000000 0.000000 0.000000 -6.556716 0.351226 -4.439602 4.926499 -0.562403 -5.755450 -5.436284 -14.977751 18.989704 0.000000 0.000000 0.000000 10.113679 -0.424863 0.696643 -5.870184 2.325395 -16.354381 -2.933358 2.804179 28.738823 12.647852 -7.076159 -16.392459 0.000000 0.000000 0.000000 -0.672996 -20.150789 6.729662 -31.238030 -34.788275 2.644013 116.678282 -66.423083 -89.708917 0.000000 0.000000 0.000000 8.560945 3.982002 2.037056 37.517234 35.587228 5.089034 -80.741750 83.808876 -65.720176 0.000000 0.000000 0.000000 
-0.001743 0.953690 -0.095567 1.550307 5.685446 5.871612 3.784394 -0.246012 -1.917478 -3.648613 0.338015 -8.063429 1.795598 9.349441 16.513545 0.000000 0.000000 0.000000 -6.594061 0.344695 -4.373019 4.941307 -0.565144 -5.896266 -5.495545 -15.056681 19.042082 0.000000 0.000000 0.000000 10.184870 -0.411112 0.574314 -5.925439 2.346517 -16.307841 -2.984171 2.778353 28.805206 12.743548 -7.143359 -16.389471 0.000000 0.000000 0.000000 -0.731887 -20.355104 6.799127 -31.185395 -34.639173 2.597722 116.731689 -66.530655 -89.919065 0.000000 0.000000 0.000000 8.678247 4.012239 2.065817 37.503910 35.244063 4.960753 -82.058919 83.621102 -66.773966 0.000000 0.000000 0.000000 
-0.001702 0.953513 -0.097191 1.581611 5.891036 5.819925 3.787695 -0.242629 -1.846776 -3.712759 0.335220 -8.313852 1.671812 9.205640 16.549061 0.000000 0.000000 0.000000 -6.670658 0.333070 -4.233607 5.015244 -0.573219 -6.164877 -5.580842 -15.171080 19.148499 0.000000 0.000000 0.000000 10.262455 -0.373096 0.258694 -6.038547 2.387887 -16.223458 -3.065364 2.729076 28.956501 12.813425 -7.199312 -16.364301 0.000000 0.000000 0.000000 -0.647978 -20.800805 6.933113 -30.881627 -34.466645 2.499909 115.859824 -66.416176 -88.918634 0.000000 0.000000 0.000000 8.660986 4.020486 2.079349 37.479853 34.870118 4.821409 -82.326137 83.478735 -66.843370 0.000000 0.000000 0.000000 
